<?xml version="1.0" encoding="UTF-8" standalone="no"?>
<!-- Created with Inkscape (http://www.inkscape.org/) -->

<svg
   xmlns:dc="http://purl.org/dc/elements/1.1/"
   xmlns:cc="http://creativecommons.org/ns#"
   xmlns:rdf="http://www.w3.org/1999/02/22-rdf-syntax-ns#"
   xmlns:svg="http://www.w3.org/2000/svg"
   xmlns="http://www.w3.org/2000/svg"
   xmlns:sodipodi="http://sodipodi.sourceforge.net/DTD/sodipodi-0.dtd"
   xmlns:inkscape="http://www.inkscape.org/namespaces/inkscape"
   width="64"
   height="56.014999"
   viewBox="0 0 16.933333 14.820636"
   version="1.1"
   id="svg8"
   inkscape:version="0.92.3 (2405546, 2018-03-11)"
   sodipodi:docname="like.svg">
  <defs
     id="defs2" />
  <sodipodi:namedview
     id="base"
     pagecolor="#ffffff"
     bordercolor="#666666"
     borderopacity="1.0"
     inkscape:pageopacity="0.0"
     inkscape:pageshadow="2"
     inkscape:zoom="2.8"
     inkscape:cx="126.48158"
     inkscape:cy="-3.7113996"
     inkscape:document-units="mm"
     inkscape:current-layer="layer1"
     showgrid="false"
     units="px"
     inkscape:window-width="1200"
     inkscape:window-height="626"
     inkscape:window-x="200"
     inkscape:window-y="136"
     inkscape:window-maximized="0" />
  <metadata
     id="metadata5">
    <rdf:RDF>
      <cc:Work
         rdf:about="">
        <dc:format>image/svg+xml</dc:format>
        <dc:type
           rdf:resource="http://purl.org/dc/dcmitype/StillImage" />
        <dc:title></dc:title>
      </cc:Work>
    </rdf:RDF>
  </metadata>
  <g
     inkscape:label="Layer 1"
     inkscape:groupmode="layer"
     id="layer1"
     transform="translate(0,-282.17936)">
    <path
       id="path815"
       d="m 15.160618,283.24829 c -1.911614,-1.60734 -4.865022,-1.36591 -6.6939536,0.49609 -1.8289308,-1.862 -4.7823402,-2.10674 -6.6939533,-0.49609 -2.48708167,2.09352 -2.12327981,5.50664 -0.3505728,7.31573 l 5.8009855,5.91012 C 7.5538527,296.81148 7.9970295,297 8.4666644,297 c 0.4729422,0 0.9128119,-0.18521 1.2435404,-0.52255 l 5.8009852,-5.91013 c 1.7694,-1.80908 2.139816,-5.22221 -0.350572,-7.31903 z m -0.780521,6.20117 -5.8009851,5.91012 c -0.079375,0.0794 -0.1455199,0.0794 -0.2248949,0 l -5.8009857,-5.91012 c -1.2071606,-1.23031 -1.4519,-3.55864 0.2414322,-4.98409 1.2865354,-1.08148 3.270909,-0.91942 4.5144499,0.34727 l 1.157551,1.1807 1.1575517,-1.1807 c 1.2501549,-1.27331 3.2345289,-1.42875 4.5144489,-0.35057 1.690025,1.42544 1.438672,3.767 0.241432,4.98739 z"
       inkscape:connector-curvature="0"
       style="fill:#a78fbf;stroke-width:0.03307289;fill-opacity:1" />
  </g>
</svg>
