<?xml version="1.0" encoding="UTF-8" standalone="no"?>
<!-- Created with Inkscape (http://www.inkscape.org/) -->

<svg
   xmlns:dc="http://purl.org/dc/elements/1.1/"
   xmlns:cc="http://creativecommons.org/ns#"
   xmlns:rdf="http://www.w3.org/1999/02/22-rdf-syntax-ns#"
   xmlns:svg="http://www.w3.org/2000/svg"
   xmlns="http://www.w3.org/2000/svg"
   xmlns:sodipodi="http://sodipodi.sourceforge.net/DTD/sodipodi-0.dtd"
   xmlns:inkscape="http://www.inkscape.org/namespaces/inkscape"
   width="64"
   height="64"
   viewBox="0 0 16.933333 16.933334"
   version="1.1"
   id="svg8"
   inkscape:version="0.92.3 (2405546, 2018-03-11)"
   sodipodi:docname="loading.svg">
  <defs
     id="defs2" />
  <sodipodi:namedview
     id="base"
     pagecolor="#ffffff"
     bordercolor="#666666"
     borderopacity="1.0"
     inkscape:pageopacity="0.0"
     inkscape:pageshadow="2"
     inkscape:zoom="3.959798"
     inkscape:cx="71.443968"
     inkscape:cy="43.116587"
     inkscape:document-units="mm"
     inkscape:current-layer="layer1"
     showgrid="false"
     units="px"
     inkscape:window-width="1600"
     inkscape:window-height="845"
     inkscape:window-x="0"
     inkscape:window-y="27"
     inkscape:window-maximized="1" />
  <metadata
     id="metadata5">
    <rdf:RDF>
      <cc:Work
         rdf:about="">
        <dc:format>image/svg+xml</dc:format>
        <dc:type
           rdf:resource="http://purl.org/dc/dcmitype/StillImage" />
        <dc:title></dc:title>
      </cc:Work>
    </rdf:RDF>
  </metadata>
  <g
     inkscape:label="Layer 1"
     inkscape:groupmode="layer"
     id="layer1"
     transform="translate(0,-280.06665)">
    <path
       id="path10"
       d="m 10.054166,281.65417 c 0,0.87676 -0.7107358,1.5875 -1.5874998,1.5875 -0.8767631,0 -1.5875001,-0.71074 -1.5875001,-1.5875 0,-0.87677 0.710737,-1.5875 1.5875001,-1.5875 0.876764,0 1.5874998,0.71073 1.5874998,1.5875 z M 8.4666662,293.825 c -0.8767631,0 -1.5875001,0.71074 -1.5875001,1.5875 0,0.87676 0.710737,1.5875 1.5875001,1.5875 0.876764,0 1.5874998,-0.71074 1.5874998,-1.5875 0,-0.87676 -0.7107358,-1.5875 -1.5874998,-1.5875 z m 6.8791668,-6.87917 c -0.876763,0 -1.5875,0.71074 -1.5875,1.5875 0,0.87677 0.710737,1.5875 1.5875,1.5875 0.876763,0 1.5875,-0.71073 1.5875,-1.5875 0,-0.87676 -0.710737,-1.5875 -1.5875,-1.5875 z m -12.1708329,1.5875 c 0,-0.87676 -0.7107361,-1.5875 -1.5875001,-1.5875 -0.87676299,0 -1.5875,0.71074 -1.5875,1.5875 0,0.87677 0.71073701,1.5875 1.5875,1.5875 0.876764,0 1.5875001,-0.71073 1.5875001,-1.5875 z m 0.427369,3.2768 c -0.876764,0 -1.5875001,0.71074 -1.5875001,1.5875 0,0.87676 0.7107361,1.5875 1.5875001,1.5875 0.876762,0 1.587499,-0.71074 1.587499,-1.5875 0,-0.87673 -0.71077,-1.5875 -1.587499,-1.5875 z m 9.7285959,0 c -0.876763,0 -1.5875,0.71074 -1.5875,1.5875 0,0.87676 0.710737,1.5875 1.5875,1.5875 0.876762,0 1.5875,-0.71074 1.5875,-1.5875 0,-0.87673 -0.710738,-1.5875 -1.5875,-1.5875 z m -9.7285959,-9.72859 c -0.876764,0 -1.5875001,0.71073 -1.5875001,1.5875 0,0.87676 0.7107361,1.5875 1.5875001,1.5875 0.876762,0 1.587499,-0.71074 1.587499,-1.5875 0,-0.87677 -0.71077,-1.5875 -1.587499,-1.5875 z"
       inkscape:connector-curvature="0"
       style="fill:#ffffff;stroke-width:0.03307291" />
  </g>
</svg>
