<?xml version="1.0" encoding="UTF-8" standalone="no"?>
<!-- Created with Inkscape (http://www.inkscape.org/) -->

<svg
   xmlns:dc="http://purl.org/dc/elements/1.1/"
   xmlns:cc="http://creativecommons.org/ns#"
   xmlns:rdf="http://www.w3.org/1999/02/22-rdf-syntax-ns#"
   xmlns:svg="http://www.w3.org/2000/svg"
   xmlns="http://www.w3.org/2000/svg"
   xmlns:sodipodi="http://sodipodi.sourceforge.net/DTD/sodipodi-0.dtd"
   xmlns:inkscape="http://www.inkscape.org/namespaces/inkscape"
   width="18.580999"
   height="64"
   viewBox="0 0 4.9162227 16.933334"
   version="1.1"
   id="svg8"
   inkscape:version="0.92.3 (2405546, 2018-03-11)"
   sodipodi:docname="more.svg">
  <defs
     id="defs2" />
  <sodipodi:namedview
     id="base"
     pagecolor="#ffffff"
     bordercolor="#666666"
     borderopacity="1.0"
     inkscape:pageopacity="0.0"
     inkscape:pageshadow="2"
     inkscape:zoom="2.8"
     inkscape:cx="-0.18881743"
     inkscape:cy="35.470329"
     inkscape:document-units="mm"
     inkscape:current-layer="layer1"
     showgrid="false"
     units="px"
     inkscape:window-width="1200"
     inkscape:window-height="626"
     inkscape:window-x="200"
     inkscape:window-y="136"
     inkscape:window-maximized="0" />
  <metadata
     id="metadata5">
    <rdf:RDF>
      <cc:Work
         rdf:about="">
        <dc:format>image/svg+xml</dc:format>
        <dc:type
           rdf:resource="http://purl.org/dc/dcmitype/StillImage" />
        <dc:title></dc:title>
      </cc:Work>
    </rdf:RDF>
  </metadata>
  <g
     inkscape:label="Layer 1"
     inkscape:groupmode="layer"
     id="layer1"
     transform="translate(0,-280.06666)">
    <path
       id="path928"
       d="m 2.458065,286.07526 c 1.358763,0 2.458064,1.0993 2.458064,2.45806 0,1.35877 -1.099301,2.45807 -2.458064,2.45807 C 1.099301,290.99139 0,289.89209 0,288.53332 c 0,-1.35876 1.099301,-2.45806 2.458065,-2.45806 z M 0,282.52472 c 0,1.35876 1.099301,2.45807 2.458065,2.45807 1.358763,0 2.458064,-1.09931 2.458064,-2.45807 0,-1.35876 -1.099301,-2.45806 -2.458064,-2.45806 C 1.099301,280.06666 0,281.16596 0,282.52472 Z m 0,12.01721 c 0,1.35876 1.099301,2.45806 2.458065,2.45806 1.358763,0 2.458064,-1.0993 2.458064,-2.45806 0,-1.35877 -1.099301,-2.45807 -2.458064,-2.45807 C 1.099301,292.08386 0,293.18316 0,294.54193 Z"
       inkscape:connector-curvature="0"
       style="fill:#a78fbf;stroke-width:0.03413978;fill-opacity:1" />
  </g>
</svg>
