<?xml version="1.0" encoding="UTF-8" standalone="no"?>
<svg
   xmlns:dc="http://purl.org/dc/elements/1.1/"
   xmlns:cc="http://creativecommons.org/ns#"
   xmlns:rdf="http://www.w3.org/1999/02/22-rdf-syntax-ns#"
   xmlns:svg="http://www.w3.org/2000/svg"
   xmlns="http://www.w3.org/2000/svg"
   xmlns:sodipodi="http://sodipodi.sourceforge.net/DTD/sodipodi-0.dtd"
   xmlns:inkscape="http://www.inkscape.org/namespaces/inkscape"
   sodipodi:docname="logotype.svg"
   inkscape:version="1.0 (6e3e5246a0, 2020-05-07)"
   id="svg8"
   version="1.1"
   viewBox="0 0 16.933333 16.933334"
   height="64"
   width="64">
  <defs
     id="defs2" />
  <sodipodi:namedview
     inkscape:window-maximized="1"
     inkscape:window-y="27"
     inkscape:window-x="0"
     inkscape:window-height="836"
     inkscape:window-width="1600"
     units="px"
     showgrid="false"
     inkscape:document-rotation="0"
     inkscape:current-layer="layer1"
     inkscape:document-units="mm"
     inkscape:cy="24.328552"
     inkscape:cx="7.9495055"
     inkscape:zoom="2.8"
     inkscape:pageshadow="2"
     inkscape:pageopacity="0.0"
     borderopacity="1.0"
     bordercolor="#666666"
     pagecolor="#ffffff"
     id="base" />
  <metadata
     id="metadata5">
    <rdf:RDF>
      <cc:Work
         rdf:about="">
        <dc:format>image/svg+xml</dc:format>
        <dc:type
           rdf:resource="http://purl.org/dc/dcmitype/StillImage" />
        <dc:title></dc:title>
      </cc:Work>
    </rdf:RDF>
  </metadata>
  <g
     id="layer1"
     inkscape:groupmode="layer"
     inkscape:label="Слой 1">
    <g
       style="fill:#8000ff;fill-opacity:1"
       transform="scale(0.26458333)"
       id="g36">
	<g
   style="fill:#8000ff;fill-opacity:1"
   id="g32">
		<path
   style="fill:#8000ff;fill-opacity:1"
   class="st0"
   d="M 32,0 C 14.33,0 0,14.33 0,32 0,49.67 14.33,64 32,64 49.67,64 64,49.67 64,32 64,14.33 49.67,0 32,0 Z m 0,48 c -8.84,0 -16,-7.16 -16,-16 0,-8.84 7.16,-16 16,-16 8.84,0 16,7.16 16,16 0,8.84 -7.16,16 -16,16 z"
   id="path30" />

	</g>

	<path
   style="fill:#8000ff;fill-opacity:1"
   class="st0"
   d="M 64,32 V 64 H 32 V 48 c 8.84,0 16,-7.16 16,-16 z"
   id="path34" />

</g>
  </g>
  <style
     type="text/css"
     id="style28">
	.st0{fill:#FFFFFF;}
</style>
</svg>
