<?xml version="1.0" encoding="utf-8"?>
<!-- Generator: Adobe Illustrator 23.0.3, SVG Export Plug-In . SVG Version: 6.00 Build 0)  -->
<svg version="1.1" id="Слой_2" xmlns="http://www.w3.org/2000/svg" xmlns:xlink="http://www.w3.org/1999/xlink" x="0px" y="0px"
	 viewBox="0 0 64 64" style="enable-background:new 0 0 64 64;" xml:space="preserve">
<style type="text/css">
	.st0{fill:#FFFFFF;}
</style>
<g>
	<g>
		<path class="st0" d="M32,0C14.33,0,0,14.33,0,32c0,17.67,14.33,32,32,32s32-14.33,32-32C64,14.33,49.67,0,32,0z M32,48
			c-8.84,0-16-7.16-16-16c0-8.84,7.16-16,16-16s16,7.16,16,16C48,40.84,40.84,48,32,48z"/>
	</g>
	<path class="st0" d="M64,32v32H32V48c8.84,0,16-7.16,16-16H64z"/>
</g>
</svg>
